<svg width="256" height="256" viewBox="0 0 256 256" fill="none" xmlns="http://www.w3.org/2000/svg">
<path d="M0 128C0 57.3076 57.3076 0 128 0V0C198.692 0 256 57.3076 256 128V128C256 198.692 198.692 256 128 256V256C57.3076 256 0 198.692 0 128V128Z" fill="#0F52BA"/>
<path d="M34.1116 160V97.7H43.6346L70.8686 143.179H65.8846L92.6736 97.7H102.197L102.286 160H91.3386L91.2496 114.877H93.5636L70.7796 152.88H65.6176L42.4776 114.877H45.1476V160H34.1116ZM129.438 145.315L128.815 131.609L161.478 97.7H174.472L147.327 126.536L140.919 133.567L129.438 145.315ZM119.114 160V97.7H130.684V160H119.114ZM162.546 160L138.694 131.609L146.348 123.154L176.074 160H162.546ZM201.961 160.89C197.095 160.89 192.438 160.208 187.988 158.843C183.538 157.419 180.007 155.609 177.397 153.414L181.402 144.425C183.894 146.383 186.979 148.015 190.658 149.32C194.336 150.625 198.104 151.278 201.961 151.278C205.224 151.278 207.864 150.922 209.882 150.21C211.899 149.498 213.382 148.549 214.332 147.362C215.281 146.116 215.756 144.722 215.756 143.179C215.756 141.28 215.073 139.767 213.709 138.64C212.344 137.453 210.564 136.534 208.369 135.881C206.233 135.169 203.83 134.516 201.16 133.923C198.549 133.33 195.909 132.647 193.239 131.876C190.628 131.045 188.225 130.007 186.03 128.761C183.894 127.456 182.143 125.735 180.779 123.599C179.414 121.463 178.732 118.734 178.732 115.411C178.732 112.029 179.622 108.944 181.402 106.155C183.241 103.307 186 101.052 189.679 99.391C193.417 97.6703 198.134 96.81 203.83 96.81C207.568 96.81 211.276 97.2847 214.955 98.234C218.633 99.1833 221.837 100.548 224.567 102.328L220.918 111.317C218.129 109.656 215.251 108.439 212.285 107.668C209.318 106.837 206.47 106.422 203.741 106.422C200.537 106.422 197.926 106.808 195.909 107.579C193.951 108.35 192.497 109.359 191.548 110.605C190.658 111.851 190.213 113.275 190.213 114.877C190.213 116.776 190.865 118.318 192.171 119.505C193.535 120.632 195.286 121.522 197.422 122.175C199.617 122.828 202.05 123.48 204.72 124.133C207.39 124.726 210.03 125.409 212.641 126.18C215.311 126.951 217.714 127.96 219.85 129.206C222.045 130.452 223.795 132.143 225.101 134.279C226.465 136.415 227.148 139.115 227.148 142.378C227.148 145.701 226.228 148.786 224.389 151.634C222.609 154.423 219.85 156.677 216.112 158.398C212.374 160.059 207.657 160.89 201.961 160.89Z" fill="white"/>
</svg>
